<?xml version="1.0" standalone="no"?>
<!DOCTYPE svg PUBLIC "-//W3C//DTD SVG 20010904//EN"
 "http://www.w3.org/TR/2001/REC-SVG-20010904/DTD/svg10.dtd">
<svg version="1.0" xmlns="http://www.w3.org/2000/svg"
 width="1040.000000pt" height="1040.000000pt" viewBox="0 0 1040.000000 1040.000000"
 preserveAspectRatio="xMidYMid meet">
<metadata>
Created by potrace 1.11, written by Peter Selinger 2001-2013
</metadata>
<g transform="translate(0.000000,1040.000000) scale(0.100000,-0.100000)"
fill="#000000" stroke="none">
<path d="M5162 9604 c-149 -253 -352 -608 -352 -615 0 -5 57 -106 126 -226
237 -408 750 -1293 925 -1595 60 -103 191 -328 290 -500 100 -172 281 -484
402 -693 251 -434 240 -415 247 -415 3 0 22 28 42 63 20 34 109 187 198 340
l161 277 -129 223 c-673 1160 -838 1445 -964 1662 -288 495 -623 1074 -751
1295 -71 124 -135 231 -142 239 -11 11 -20 1 -53 -55z"/>
<path d="M4188 7942 c-113 -196 -269 -465 -345 -597 -77 -132 -256 -440 -398
-685 -142 -245 -338 -582 -435 -750 -361 -622 -477 -823 -670 -1155 -108 -187
-278 -479 -377 -650 -99 -170 -320 -551 -490 -845 -171 -294 -391 -674 -490
-845 -281 -485 -569 -982 -693 -1195 -125 -217 -242 -418 -272 -468 l-20 -32
2000 0 2000 0 95 162 c52 90 251 433 442 763 344 594 584 1007 780 1345 56 96
227 391 380 655 153 264 373 642 488 840 115 198 210 365 210 371 0 14 -386
684 -394 684 -4 0 -43 -62 -87 -137 -89 -155 -538 -929 -897 -1548 -131 -225
-286 -493 -345 -595 -59 -102 -229 -394 -377 -650 -148 -256 -345 -595 -438
-755 -92 -159 -173 -296 -179 -303 -9 -9 -98 -12 -403 -10 l-390 3 122 210
c379 653 474 817 690 1190 131 226 312 538 403 695 91 157 196 337 232 400 63
109 363 626 760 1310 97 168 252 435 345 594 128 222 165 293 158 305 -6 9
-166 286 -358 616 -191 330 -434 749 -540 930 -105 182 -213 369 -241 417 -27
48 -51 87 -54 88 -3 0 -98 -161 -212 -358z m417 -1372 c103 -179 190 -328 192
-332 2 -4 -34 -71 -80 -150 -46 -79 -193 -332 -327 -563 -134 -231 -305 -526
-380 -655 -75 -129 -246 -424 -380 -655 -134 -231 -305 -526 -380 -655 -75
-129 -246 -424 -380 -655 -134 -231 -289 -499 -345 -595 -56 -96 -179 -309
-274 -473 l-173 -297 -399 0 -400 0 12 23 c7 12 42 74 79 137 37 63 207 356
377 650 390 673 938 1619 1203 2075 609 1049 978 1685 1198 2067 183 316 250
423 258 415 6 -7 96 -158 199 -337z"/>
<path d="M7371 5152 c-124 -213 -295 -508 -381 -657 -87 -148 -255 -438 -374
-644 l-217 -373 49 -87 c28 -47 114 -196 192 -331 208 -358 679 -1170 786
-1355 l93 -160 -360 -3 c-197 -1 -521 -1 -719 0 l-360 3 61 105 c194 333 260
451 257 459 -16 41 -394 679 -399 673 -4 -4 -178 -302 -387 -662 -209 -360
-476 -821 -594 -1025 l-215 -370 999 -3 c549 -1 1447 -1 1996 0 l998 3 -136
235 c-75 129 -211 363 -302 520 -91 157 -272 470 -403 695 -131 226 -312 538
-403 695 -91 157 -207 357 -258 445 l-93 160 29 50 c15 28 75 131 132 230 57
99 133 230 169 292 35 62 66 113 69 113 3 0 19 -24 36 -52 17 -29 105 -181
196 -338 186 -320 578 -997 745 -1285 61 -104 177 -305 258 -445 82 -140 285
-491 452 -780 168 -289 308 -528 312 -533 4 -4 186 -6 404 -5 l397 3 -59 100
c-32 55 -167 289 -301 520 -134 231 -298 515 -365 630 -68 116 -229 395 -360
620 -131 226 -311 536 -400 690 -90 154 -315 543 -502 865 -187 322 -444 766
-573 988 -128 221 -236 402 -239 402 -3 0 -107 -175 -230 -388z"/>
</g>
</svg>
