<svg width="24" height="24" viewBox="0 0 24 24" version="1.1" xmlns="http://www.w3.org/2000/svg" xmlns:xlink="http://www.w3.org/1999/xlink">
<title>dribbble</title>
<desc>Created using Figma</desc>
<g id="Canvas" transform="translate(-2436 -283)">
<g id="dribbble">
<use xlink:href="#path0_fill" transform="translate(2436 283)" fill="#FFFFFF"/>
</g>
</g>
<defs>
<path id="path0_fill" d="M 16 21.4375C 14.7656 21.9531 13.4219 22.25 12 22.25C 9.51562 22.25 7.25 21.3594 5.46875 19.9062C 5.46875 19.9062 5.60938 20 5.70312 20.0781C 7.67188 15.7969 13.75 13.6719 13.75 13.6719C 13.7656 13.6719 13.7969 13.6562 13.8125 13.6562C 15.25 17.4062 15.8438 20.5312 16 21.4375ZM 13.1094 11.9531C 12.9844 12 12.8438 12.0312 12.7031 12.0781C 12.7031 12.0781 7.17188 13.8594 4.375 18.8438C 2.75 17.0312 1.75 14.625 1.75 12C 1.75 11.8906 1.75 11.7812 1.76562 11.6719C 1.9375 11.6719 7 11.7969 12.2812 10.2188C 12.5781 10.7969 12.8594 11.375 13.1094 11.9531ZM 11.4375 8.64062C 6.51562 9.9375 2.23438 9.89062 1.96875 9.89062C 2.64062 6.71875 4.76562 4.07812 7.625 2.73438C 7.76562 2.92188 9.65625 5.48438 11.4375 8.64062ZM 22.125 13.625C 21.6562 16.4844 20.0312 18.9531 17.7344 20.5C 17.625 19.8906 17.0781 16.875 15.7344 13.1719C 19.0469 12.6562 21.9062 13.5625 22.125 13.625ZM 9.54688 2.04688C 9.53125 2.04688 9.51562 2.0625 9.51562 2.0625C 9.53125 2.04688 9.53125 2.04688 9.54688 2.04688ZM 18.7656 4.3125C 18.7344 4.35938 17.2812 6.57812 13.4219 8.01562C 11.6719 4.79688 9.73438 2.25 9.57812 2.04688C 10.3594 1.85937 11.1719 1.75 12 1.75C 14.5938 1.75 16.9688 2.71875 18.7656 4.3125ZM 22.25 11.8906C 22.125 11.875 18.6406 11.1094 15.1094 11.5625C 15.0312 11.3906 14.9687 11.2031 14.8906 11.0312C 14.6719 10.5312 14.4375 10.0312 14.2031 9.54688C 18.25 7.89062 19.8906 5.51562 19.9219 5.48438C 21.3594 7.23438 22.2188 9.46875 22.25 11.8906ZM 24 12C 24 5.375 18.625 0 12 0C 5.375 0 0 5.375 0 12C 0 18.625 5.375 24 12 24C 18.625 24 24 18.625 24 12Z"/>
</defs>
</svg>
