<svg width="24" height="24" viewBox="0 0 24 24" version="1.1" xmlns="http://www.w3.org/2000/svg" xmlns:xlink="http://www.w3.org/1999/xlink">
<title>ig</title>
<desc>Created using Figma</desc>
<g id="Canvas" transform="translate(-2312 -283)">
<g id="ig">
<use xlink:href="#path0_fill" transform="translate(2312 283)" fill="#FFFFFF"/>
</g>
</g>
<defs>
<path id="path0_fill" d="M 15.9997 12C 15.9997 14.2029 14.2029 15.9997 12 15.9997C 9.79705 15.9997 8.00033 14.2029 8.00033 12C 8.00033 9.79705 9.79705 8.00033 12 8.00033C 14.2029 8.00033 15.9997 9.79705 15.9997 12ZM 18.1557 12C 18.1557 8.59403 15.406 5.84425 12 5.84425C 8.59403 5.84425 5.84425 8.59403 5.84425 12C 5.84425 15.406 8.59403 18.1557 12 18.1557C 15.406 18.1557 18.1557 15.406 18.1557 12ZM 19.8431 5.59427C 19.8431 4.79746 19.2025 4.15689 18.4057 4.15689C 17.6089 4.15689 16.9683 4.79746 16.9683 5.59427C 16.9683 6.39108 17.6089 7.03165 18.4057 7.03165C 19.2025 7.03165 19.8431 6.39108 19.8431 5.59427ZM 12 2.15705C 13.7499 2.15705 17.4996 2.01644 19.0775 2.64139C 19.6244 2.86012 20.0306 3.12572 20.4524 3.54756C 20.8743 3.9694 21.1399 4.37562 21.3586 4.92245C 21.9836 6.50045 21.843 10.2501 21.843 12C 21.843 13.7499 21.9836 17.4996 21.3586 19.0775C 21.1399 19.6244 20.8743 20.0306 20.4524 20.4524C 20.0306 20.8743 19.6244 21.1399 19.0775 21.3586C 17.4996 21.9836 13.7499 21.843 12 21.843C 10.2501 21.843 6.50045 21.9836 4.92245 21.3586C 4.37562 21.1399 3.9694 20.8743 3.54756 20.4524C 3.12572 20.0306 2.86012 19.6244 2.64139 19.0775C 2.01644 17.4996 2.15705 13.7499 2.15705 12C 2.15705 10.2501 2.01644 6.50045 2.64139 4.92245C 2.86012 4.37562 3.12572 3.9694 3.54756 3.54756C 3.9694 3.12572 4.37562 2.86012 4.92245 2.64139C 6.50045 2.01644 10.2501 2.15705 12 2.15705ZM 23.999 12C 23.999 10.3439 24.0146 8.70339 23.9209 7.04728C 23.8272 5.12556 23.3897 3.42257 21.9836 2.01644C 20.5774 0.610302 18.8744 0.172837 16.9527 0.0790951C 15.2966 -0.0146472 13.6561 0.000976483 12 0.000976483C 10.3439 0.000976483 8.70339 -0.0146472 7.04728 0.0790951C 5.12556 0.172837 3.42257 0.610302 2.01644 2.01644C 0.610302 3.42257 0.172837 5.12556 0.0790951 7.04728C -0.0146472 8.70339 0.000976483 10.3439 0.000976483 12C 0.000976483 13.6561 -0.0146472 15.2966 0.0790951 16.9527C 0.172837 18.8744 0.610302 20.5774 2.01644 21.9836C 3.42257 23.3897 5.12556 23.8272 7.04728 23.9209C 8.70339 24.0146 10.3439 23.999 12 23.999C 13.6561 23.999 15.2966 24.0146 16.9527 23.9209C 18.8744 23.8272 20.5774 23.3897 21.9836 21.9836C 23.3897 20.5774 23.8272 18.8744 23.9209 16.9527C 24.0146 15.2966 23.999 13.6561 23.999 12Z"/>
</defs>
</svg>
